<svg width="24" height="24" viewBox="0 0 24 24" fill="none" xmlns="http://www.w3.org/2000/svg">
<path fill-rule="evenodd" clip-rule="evenodd" d="M24 13V3H12V0L4 7.5L6.353 10H9.1L6.83 7.588L10 4.616V5H22V11H17.057L19.191 13H24ZM16.215 8.5C16.352 9.01 16.707 9.42 17.288 9.42C17.456 9.42 17.629 9.388 17.804 9.324L17.951 9.863C17.706 9.953 17.455 10 17.205 10C16.134 10 15.53 9.309 15.357 8.5H14.834L14.888 8.166H15.31L15.312 7.834H14.945L15 7.5H15.361C15.536 6.691 16.133 6 17.127 6C17.397 6 17.691 6.047 18 6.139L17.873 6.666C17.631 6.595 17.421 6.562 17.233 6.562C16.684 6.562 16.339 6.982 16.208 7.5H17.5L17.446 7.834H16.155L16.157 8.166H17.389L17.334 8.5H16.215ZM20 16.5L12 9V12H0V21H12V24L20 16.5ZM6.668 19V18.562C7.357 18.465 7.919 18.084 7.919 17.37C7.919 16.6073 7.24132 16.314 6.59952 16.0363C6.48907 15.9885 6.37969 15.9412 6.275 15.892C5.841 15.667 5.897 15.13 6.517 15.094C6.861 15.072 7.216 15.175 7.535 15.287L7.685 14.6C7.308 14.485 6.969 14.432 6.668 14.424V14H6.25V14.443C5.44 14.556 5.008 15.064 5.008 15.631C5.008 16.4574 5.79131 16.7142 6.29301 16.8786C6.40812 16.9163 6.5084 16.9492 6.581 16.983C7.11 17.22 7.012 17.713 6.533 17.821C6.118 17.914 5.588 17.75 5.19 17.595L5 18.281C5.372 18.474 5.819 18.576 6.25 18.584V19H6.668Z" fill="white"/>
</svg>
